<svg width="200" height="200" viewBox="0 0 20 20" fill="none" xmlns="http://www.w3.org/2000/svg">
<path d="M17.5 15.834C17.9602 15.834 18.333 16.2068 18.333 16.667C18.333 17.1272 17.9602 17.5 17.5 17.5H10C9.53976 17.5 9.16699 17.1272 9.16699 16.667C9.16699 16.2068 9.53976 15.834 10 15.834H17.5Z" fill="black"/>
<path d="M15.8334 4.26855C15.8333 4.02065 15.7352 3.78277 15.5599 3.60742C15.3845 3.43196 15.146 3.33301 14.8978 3.33301C14.6498 3.33306 14.4121 3.43207 14.2367 3.60742L4.22692 13.6162C4.12786 13.7152 4.05524 13.8382 4.01598 13.9727L3.52965 15.6357L5.19469 15.1504C5.32929 15.1112 5.45201 15.0386 5.55114 14.9395L15.5599 4.93066C15.7353 4.75521 15.8334 4.51665 15.8334 4.26855ZM17.5004 4.26855C17.5004 4.95872 17.2257 5.62135 16.7377 6.10938L6.72985 16.1182C6.43247 16.4155 6.06429 16.6324 5.66051 16.75L5.66149 16.751L3.26794 17.4492C3.05286 17.5119 2.82479 17.5156 2.60778 17.46C2.39081 17.4044 2.19296 17.2912 2.03454 17.1328C1.87619 16.9745 1.76304 16.7765 1.70739 16.5596C1.65178 16.3425 1.65539 16.1136 1.71813 15.8984L2.41637 13.5059V13.5049C2.5194 13.1523 2.69871 12.8273 2.94079 12.5527L3.04919 12.4375L13.058 2.42871C13.5459 1.9408 14.2078 1.66704 14.8978 1.66699C15.5879 1.66699 16.2497 1.94087 16.7377 2.42871C17.2256 2.91664 17.5003 3.57853 17.5004 4.26855Z" fill="black"/>
</svg>
