<svg width="200" height="200" viewBox="0 0 20 20" fill="none" xmlns="http://www.w3.org/2000/svg">
<path d="M12.2851 0.902345C12.3672 0.902198 12.4486 0.918241 12.5245 0.949555C12.6004 0.98087 12.6694 1.02684 12.7276 1.08484L18.9151 7.27234C19.0322 7.38955 19.0981 7.54849 19.0981 7.71422C19.0981 7.87995 19.0322 8.03889 18.9151 8.15609C18.3151 8.75609 17.5751 8.89109 17.0363 8.89109C16.8151 8.89109 16.6176 8.86859 16.4613 8.84234L12.5438 12.7598C12.6465 13.1754 12.7134 13.5991 12.7438 14.0261C12.8013 14.9036 12.7038 16.1348 11.8438 16.9948C11.7266 17.112 11.5677 17.1778 11.4019 17.1778C11.2362 17.1778 11.0773 17.112 10.9601 16.9948L7.42382 13.4598L3.44632 17.4373C3.20257 17.6811 1.92257 18.5648 1.67882 18.3211C1.43507 18.0773 2.31882 16.7961 2.56257 16.5536L6.54007 12.5761L3.00507 9.03984C2.8879 8.92264 2.82207 8.7637 2.82207 8.59797C2.82207 8.43224 2.8879 8.2733 3.00507 8.15609C3.86507 7.29609 5.09632 7.19734 5.97382 7.25609C6.40083 7.2865 6.82446 7.35341 7.24007 7.45609L11.1576 3.53984C11.1261 3.34934 11.1094 3.15668 11.1076 2.96359C11.1076 2.42609 11.2426 1.68609 11.8438 1.08484C11.9609 0.968009 12.1196 0.90238 12.2851 0.902345Z" fill="black"/>
</svg>
