<svg width="200" height="200" viewBox="0 0 20 20" fill="none" xmlns="http://www.w3.org/2000/svg">
<path d="M11.0927 2.81191C11.4262 2.4952 11.9534 2.50886 12.2704 2.84218C12.5874 3.17585 12.5738 3.7039 12.2401 4.02089L10.5741 5.6039C10.2404 5.92089 9.71239 5.9073 9.3954 5.57362C9.0787 5.24004 9.09236 4.71285 9.42567 4.39589L11.0927 2.81191Z" fill="black"/>
<path d="M1.02896 5.77774C1.15135 5.33409 1.6107 5.07334 2.05436 5.19571L4.47135 5.8627C4.9148 5.98524 5.17476 6.44455 5.0524 6.8881C4.92985 7.33144 4.47146 7.59139 4.02799 7.46915L1.611 6.80313C1.16734 6.68075 0.906595 6.2214 1.02896 5.77774Z" fill="black"/>
<path d="M4.39735 9.42567C4.71431 9.09236 5.24151 9.0787 5.57509 9.3954C5.90876 9.71239 5.92235 10.2404 5.60536 10.5741L4.02235 12.2401C3.70537 12.5738 3.17732 12.5874 2.84364 12.2704C2.51033 11.9534 2.49667 11.4262 2.81337 11.0927L4.39735 9.42567Z" fill="black"/>
<path d="M5.77774 1.02896C6.2214 0.906595 6.68075 1.16734 6.80313 1.611L7.46915 4.02799C7.59139 4.47146 7.33144 4.92985 6.8881 5.0524C6.44455 5.17476 5.98524 4.9148 5.8627 4.47135L5.19571 2.05436C5.07334 1.6107 5.33409 1.15135 5.77774 1.02896Z" fill="black"/>
<path d="M7.85803 6.66641C8.03898 6.65862 8.21967 6.69138 8.38831 6.76113L8.38928 6.76016L17.5563 10.5102H17.5573C17.7711 10.598 17.9557 10.7435 18.0914 10.9291L18.1471 11.0111L18.1949 11.098C18.2997 11.303 18.3467 11.5333 18.3287 11.7641C18.3082 12.0276 18.2045 12.2779 18.0328 12.4789C17.8609 12.68 17.6291 12.822 17.3717 12.8832L17.3707 12.8822L13.7487 13.7504L12.8815 17.3695L12.8824 17.3705C12.8219 17.6287 12.6804 17.8619 12.4791 18.0346C12.2779 18.207 12.0266 18.3109 11.7623 18.3314C11.498 18.3519 11.2339 18.2882 11.0084 18.1488C10.7828 18.0094 10.6073 17.8018 10.5074 17.5561V17.5551L6.75843 8.39102L6.7594 8.39004C6.66586 8.16389 6.63943 7.9156 6.68616 7.6752L6.73499 7.49649C6.79681 7.32201 6.89695 7.16265 7.02893 7.03067L7.16956 6.90957C7.31832 6.79959 7.49035 6.72349 7.67346 6.68789L7.85803 6.66641ZM11.5612 15.7299L12.1276 13.3617V13.3607C12.1995 13.0617 12.3533 12.7881 12.5709 12.5707C12.7885 12.3535 13.0619 12.2008 13.361 12.1293L15.7272 11.5629L8.67639 8.67813L11.5612 15.7299Z" fill="black"/>
</svg>
