<svg width="200" height="200" viewBox="0 0 20 20" fill="none" xmlns="http://www.w3.org/2000/svg">
<path d="M0.83374 12.5V4.16699C0.83374 3.50395 1.09634 2.86728 1.56519 2.39844C2.03403 1.9296 2.6707 1.66699 3.33374 1.66699H10.8337C11.2938 1.66717 11.6667 2.03987 11.6667 2.5C11.6667 2.96013 11.2938 3.33283 10.8337 3.33301H3.33374C3.11273 3.33301 2.90018 3.42087 2.7439 3.57715C2.58762 3.73343 2.49976 3.94598 2.49976 4.16699V12.5C2.49976 12.7209 2.58782 12.9326 2.7439 13.0889C2.90018 13.2451 3.11273 13.333 3.33374 13.333H16.6667C16.8878 13.333 17.0993 13.2451 17.2556 13.0889C17.4119 12.9326 17.4998 12.721 17.4998 12.5V10C17.4998 9.53976 17.8735 9.16699 18.3337 9.16699C18.7938 9.16717 19.1667 9.53987 19.1667 10V12.5C19.1667 13.163 18.9032 13.7987 18.4343 14.2676C17.9655 14.7364 17.3298 15 16.6667 15H3.33374C2.6707 15 2.03403 14.7364 1.56519 14.2676C1.09655 13.7988 0.83374 13.1629 0.83374 12.5Z" fill="black"/>
<path d="M13.3337 16.667C13.7938 16.6672 14.1667 17.0399 14.1667 17.5C14.1667 17.9601 13.7938 18.3328 13.3337 18.333H6.66675C6.20651 18.333 5.83374 17.9602 5.83374 17.5C5.83374 17.0398 6.20651 16.667 6.66675 16.667H13.3337Z" fill="black"/>
<path d="M9.16699 17.4998V14.1667C9.16699 13.7065 9.53976 13.3337 10 13.3337C10.4602 13.3337 10.833 13.7065 10.833 14.1667V17.4998C10.833 17.96 10.4602 18.3337 10 18.3337C9.53976 18.3337 9.16699 17.96 9.16699 17.4998Z" fill="black"/>
<path d="M17.7438 1.91107C18.0693 1.58563 18.5971 1.58563 18.9225 1.91107C19.2478 2.23647 19.2478 2.76341 18.9225 3.0888L14.7556 7.2558C14.4302 7.58102 13.9032 7.58102 13.5778 7.2558C13.2524 6.93036 13.2524 6.40252 13.5778 6.07709L17.7438 1.91107Z" fill="black"/>
<path d="M17.4998 6.66699V3.33301H14.1667C13.7065 3.33301 13.3337 2.96024 13.3337 2.5C13.3337 2.03976 13.7065 1.66699 14.1667 1.66699H18.3337C18.7938 1.66717 19.1667 2.03987 19.1667 2.5V6.66699C19.1666 7.12697 18.7937 7.49982 18.3337 7.5C17.8736 7.5 17.4999 7.12708 17.4998 6.66699Z" fill="black"/>
</svg>
