<svg width="20" height="20" viewBox="0 0 16 16" fill="none" xmlns="http://www.w3.org/2000/svg">
<path fill-rule="evenodd" clip-rule="evenodd" d="M11.8236 6.57598C11.7111 6.46362 11.5586 6.4005 11.3996 6.4005C11.2406 6.4005 11.0881 6.46362 10.9756 6.57598L7.99955 9.55198L5.02355 6.57598C4.96862 6.51703 4.90238 6.46974 4.82878 6.43695C4.75518 6.40416 4.67573 6.38652 4.59517 6.3851C4.51461 6.38368 4.43458 6.3985 4.35987 6.42868C4.28516 6.45885 4.2173 6.50377 4.16032 6.56075C4.10335 6.61772 4.05843 6.68559 4.02825 6.7603C3.99808 6.83501 3.98326 6.91503 3.98468 6.99559C3.9861 7.07616 4.00373 7.15561 4.03653 7.22921C4.06932 7.30281 4.1166 7.36905 4.17555 7.42398L7.57555 10.824C7.68805 10.9363 7.84055 10.9994 7.99955 10.9994C8.15855 10.9994 8.31105 10.9363 8.42355 10.824L11.8236 7.42398C11.9359 7.31148 11.999 7.15898 11.999 6.99998C11.999 6.84098 11.9359 6.68848 11.8236 6.57598Z" fill="white"/>
</svg>
