<svg width="20" height="20" viewBox="0 0 20 20" fill="none" xmlns="http://www.w3.org/2000/svg">
<g clip-path="url(#clip0_245_1418)">
<path d="M4.93211 5.5011C4.08265 5.99154 3.7829 7.08932 4.26871 7.93076L7.7582 13.9747L7.21613 13.8187L7.02237 13.7813C6.08673 13.5354 5.11418 14.0969 4.85936 15.0301C4.60453 15.9634 5.16073 16.9268 6.09637 17.1727L6.1056 17.1887L12.7257 18.8882L12.7672 18.8856L12.8019 18.9082C13.7968 19.024 14.8843 18.8572 15.8831 18.2805L16.7709 17.7679C19.1135 16.4154 19.9211 13.4575 18.5814 11.137L16.2735 7.13968C15.7877 6.29824 14.6872 6.00893 13.8377 6.49937C13.6178 6.62635 13.4486 6.80397 13.3074 6.99742C12.7536 6.42972 11.8526 6.28103 11.1323 6.69692C10.7368 6.92524 10.4625 7.28883 10.33 7.6931C9.91365 7.6057 9.4616 7.66149 9.06613 7.88982C8.88453 7.99466 8.73495 8.13166 8.60497 8.28398L7.36796 6.1414C6.88215 5.29997 5.78158 5.01066 4.93211 5.5011ZM5.52293 6.52442C5.80945 6.359 6.17102 6.45404 6.33487 6.73786L9.58435 12.3661L10.6174 11.7697L9.4358 9.72302C9.27195 9.43921 9.37042 9.07856 9.65694 8.91314C9.94346 8.74771 10.305 8.84276 10.4689 9.12657L11.6505 11.1732L12.6836 10.5768L11.502 8.53012C11.3381 8.24631 11.4366 7.88566 11.7231 7.72023C12.0096 7.55481 12.3712 7.64986 12.5351 7.93367L13.7167 9.98031L14.7982 9.3559L14.2074 8.33258C14.0435 8.04877 14.142 7.68811 14.4285 7.52269C14.715 7.35727 15.0766 7.45232 15.2405 7.73613L17.5483 11.7335C18.5719 13.5063 17.9698 15.7113 16.1801 16.7446L15.2922 17.2572C14.5356 17.6941 13.7272 17.8037 12.9514 17.7133L6.40734 16.0338C6.04577 15.9388 5.90268 15.6909 6.00116 15.3303C6.09963 14.9696 6.34983 14.8252 6.7114 14.9202L10.2129 15.8406L5.30179 7.33431C5.13793 7.0505 5.23641 6.68984 5.52293 6.52442Z" fill="black"/>
<path d="M6.80294 2.89966L5.77979 3.87165" stroke="black" stroke-width="1.02315" stroke-linecap="round" stroke-linejoin="round"/>
<path d="M2.2492 4.89461L0.765625 4.48535" stroke="black" stroke-width="1.02315" stroke-linecap="round" stroke-linejoin="round"/>
<path d="M2.71077 6.94141L1.73877 7.96456" stroke="black" stroke-width="1.02315" stroke-linecap="round" stroke-linejoin="round"/>
<path d="M3.32349 1.92725L3.73275 3.41082" stroke="black" stroke-width="1.02315" stroke-linecap="round" stroke-linejoin="round"/>
</g>
<defs>
<clipPath id="clip0_245_1418">
<rect width="20" height="20" fill="white"/>
</clipPath>
</defs>
</svg>
