<svg width="20" height="20" viewBox="0 0 20 20" fill="none" xmlns="http://www.w3.org/2000/svg">
<path d="M2.9417 2.05837C2.82322 1.94797 2.66652 1.88787 2.5046 1.89072C2.34268 1.89358 2.18819 1.95917 2.07368 2.07368C1.95917 2.18819 1.89358 2.34268 1.89072 2.5046C1.88787 2.66652 1.94797 2.82322 2.05837 2.9417L17.0584 17.9417C17.1156 18.0031 17.1846 18.0524 17.2613 18.0865C17.3379 18.1207 17.4207 18.139 17.5046 18.1405C17.5885 18.142 17.6719 18.1266 17.7497 18.0951C17.8275 18.0637 17.8982 18.0169 17.9576 17.9576C18.0169 17.8982 18.0637 17.8275 18.0951 17.7497C18.1266 17.6719 18.142 17.5885 18.1405 17.5046C18.139 17.4207 18.1207 17.3379 18.0865 17.2613C18.0524 17.1846 18.0031 17.1156 17.9417 17.0584L2.9417 2.05837ZM18.8967 10.4609C18.4475 11.8088 17.6978 13.0369 16.7042 14.0525L14.1217 11.47C14.4003 10.69 14.4518 9.84684 14.27 9.03868C14.0883 8.23053 13.6809 7.49057 13.0952 6.90486C12.5095 6.31914 11.7695 5.91173 10.9614 5.73002C10.1532 5.54831 9.3101 5.59975 8.53003 5.87837L6.46587 3.8142C7.58839 3.3575 8.789 3.12344 10.0009 3.12503C14.1425 3.12503 17.655 5.81087 18.8967 9.53337C18.9967 9.83503 18.9967 10.16 18.8967 10.4609Z" fill="black"/>
<path d="M13.1252 10.0002C13.1252 10.1502 13.1143 10.2977 13.0943 10.4418L9.55765 6.906C10.001 6.84259 10.4527 6.8752 10.8823 7.00162C11.312 7.12804 11.7094 7.34533 12.0477 7.63875C12.386 7.93217 12.6573 8.29488 12.8432 8.7023C13.0291 9.10972 13.1252 9.55234 13.1252 10.0002ZM10.4418 13.0943L6.90599 9.55767C6.83728 10.0381 6.88141 10.5279 7.03486 10.9882C7.18831 11.4486 7.44688 11.8669 7.79006 12.21C8.13325 12.5532 8.55163 12.8116 9.01205 12.965C9.47247 13.1183 9.96228 13.1623 10.4427 13.0935L10.4418 13.0943Z" fill="black"/>
<path d="M5.62499 10.0001C5.62499 9.48428 5.71415 8.98928 5.87832 8.53011L3.29499 5.94678C2.30174 6.96248 1.55231 8.19063 1.10332 9.53844C1.00332 9.84011 1.00332 10.1651 1.10332 10.4668C2.34415 14.1893 5.85665 16.8751 9.99915 16.8751C11.2492 16.8751 12.4433 16.6301 13.5342 16.1859L11.47 14.1218C10.8097 14.3573 10.1025 14.4308 9.40787 14.3359C8.71327 14.241 8.05165 13.9806 7.47872 13.5766C6.90579 13.1726 6.43834 12.6368 6.11573 12.0144C5.79313 11.392 5.62482 10.7012 5.62499 10.0001Z" fill="black"/>
</svg>
