<svg width="30" height="30" viewBox="0 0 33 33" fill="none" xmlns="http://www.w3.org/2000/svg">
<g filter="url(#filter0_d_4257_5497)">
<mask id="mask0_4257_5497" style="mask-type:luminance" maskUnits="userSpaceOnUse" x="0" y="0" width="33" height="33">
<path d="M4.72157 6.47634e-05L0 27.6802L27.6801 32.4017L32.4017 4.72164L4.72157 6.47634e-05Z" fill="white"/>
</mask>
<g mask="url(#mask0_4257_5497)">
<g filter="url(#filter1_i_4257_5497)">
<path d="M20.4291 7.58902C19.991 7.19133 19.4304 6.95496 18.8398 6.91896C18.2492 6.88295 17.664 7.04948 17.1808 7.391C16.8096 7.65652 16.5162 8.01644 16.3309 8.4335C15.8601 8.15701 15.3196 8.02203 14.7741 8.0447C14.2286 8.06736 13.7012 8.24672 13.2549 8.56131C12.8967 8.82202 12.6076 9.16628 12.4127 9.56418L9.11236 4.90645C8.88545 4.57748 8.59548 4.29681 8.25926 4.08078C7.92303 3.86475 7.54728 3.71765 7.15375 3.64799C6.76023 3.57832 6.35679 3.5875 5.96684 3.67497C5.57689 3.76244 5.20819 3.92646 4.88213 4.15755C4.55607 4.38863 4.27914 4.68216 4.06741 5.02111C3.85568 5.36005 3.71336 5.73767 3.64871 6.13205C3.58407 6.52643 3.59836 6.92972 3.69079 7.31853C3.78323 7.70734 3.95196 8.07392 4.18717 8.39701L10.6285 17.4877C10.199 18.3759 10.0565 19.3757 10.2206 20.3486C10.533 21.6047 11.0947 22.7852 11.8722 23.8201C12.6497 24.8549 13.6273 25.7229 14.7468 26.3726C16.006 27.0412 17.3863 27.4508 18.8064 27.5771C20.2264 27.7035 21.6574 27.544 23.0148 27.1082C24.3117 26.7898 25.5256 26.198 26.5753 25.3724C27.6249 24.5468 28.4861 23.5065 29.1012 22.3211C29.5717 21.3298 29.8263 20.2498 29.8484 19.1527C29.8704 18.0556 29.6592 16.9663 29.2289 15.9568C27.8928 13.1202 26.2705 10.4275 24.3872 7.92055C24.1902 7.64211 23.9403 7.40523 23.6517 7.22346C23.363 7.0417 23.0414 6.91862 22.7052 6.86126C22.369 6.80391 22.0248 6.81342 21.6922 6.88923C21.3597 6.96503 21.0453 7.10566 20.7672 7.30306C20.6466 7.38871 20.5336 7.48438 20.4291 7.58902ZM23.0883 8.87136C24.8944 11.2822 26.455 13.8675 27.7467 16.5888C28.0874 17.3885 28.2547 18.2514 28.2375 19.1205C28.2202 19.9895 28.019 20.8451 27.6469 21.6307C27.1392 22.6173 26.4214 23.4806 25.5439 24.1598C24.6664 24.839 23.6507 25.3174 22.5682 25.5615C21.4168 25.937 20.2019 26.0781 18.9951 25.9767C17.7883 25.8752 16.614 25.5332 15.5414 24.9709C14.6139 24.4307 13.804 23.7102 13.1595 22.8518C12.515 21.9935 12.049 21.0148 11.789 19.9734C11.7377 19.6955 11.7395 19.4103 11.7943 19.1331L13.5485 21.6088C13.6722 21.7834 13.8602 21.9016 14.071 21.9376C14.2819 21.9736 14.4985 21.9243 14.673 21.8006C14.8476 21.6769 14.9659 21.489 15.0018 21.2781C15.0378 21.0672 14.9885 20.8506 14.8648 20.6761L12.218 16.9417L5.50708 7.46937C5.29139 7.16497 5.20546 6.78738 5.26819 6.41963C5.33092 6.05187 5.53717 5.72409 5.84157 5.50841C6.14596 5.29273 6.52359 5.2068 6.89134 5.26953C7.25909 5.33226 7.58685 5.53851 7.80253 5.8429L13.5278 13.9231C13.6515 14.0976 13.8395 14.2159 14.0503 14.2519C14.2612 14.2878 14.4778 14.2386 14.6523 14.1149C14.8269 13.9912 14.9452 13.8033 14.9811 13.5924C15.0171 13.3815 14.9678 13.165 14.8441 12.9904L13.9726 11.7593C13.9548 11.7014 13.9302 11.6458 13.8994 11.5937C13.7182 11.3252 13.6476 10.9971 13.702 10.6778C13.7565 10.3586 13.9319 10.0725 14.1918 9.87923C14.3267 9.78502 14.479 9.71858 14.6398 9.68373C14.8006 9.64889 14.9667 9.64636 15.1285 9.67628C15.2903 9.7062 15.4445 9.76796 15.5822 9.858C15.7199 9.94804 15.8383 10.0646 15.9306 10.2008L16.6332 11.1022C16.6983 11.1856 16.7792 11.2554 16.8712 11.3075C16.9633 11.3597 17.0647 11.3931 17.1697 11.4061C17.2747 11.4191 17.3812 11.4112 17.4832 11.383C17.5852 11.3548 17.6806 11.3067 17.764 11.2416C17.8474 11.1766 17.9171 11.0957 17.9693 11.0036C18.0214 10.9116 18.055 10.8102 18.0679 10.7052C18.0809 10.6002 18.073 10.4936 18.0448 10.3917C18.0166 10.2897 17.9685 10.1943 17.9035 10.1109L17.8882 10.0905L17.8837 10.0808C17.7421 9.87475 17.6841 9.62259 17.7215 9.37539C17.7589 9.12819 17.8889 8.90442 18.0851 8.74945C18.2812 8.59448 18.529 8.51988 18.7781 8.54076C19.0273 8.56164 19.2592 8.67644 19.4268 8.86189L19.6842 9.62862C19.7215 10.0949 19.8846 10.5423 20.1559 10.9233C20.2681 11.0803 20.433 11.1919 20.6205 11.2377C20.808 11.2835 21.0057 11.2605 21.1777 11.173C21.3497 11.0854 21.4847 10.9391 21.5579 10.7605C21.6312 10.582 21.6381 10.383 21.5772 10.1999L21.2922 9.35011C21.3021 9.21309 21.3406 9.07966 21.4052 8.95839C21.4697 8.83711 21.5589 8.73065 21.6669 8.64584C21.775 8.56103 21.8996 8.49972 22.0328 8.46587C22.1659 8.43201 22.3047 8.42635 22.4401 8.44924C22.5707 8.47286 22.6952 8.52235 22.8064 8.59481C22.9176 8.66728 23.014 8.76142 23.0883 8.87136Z" fill="white"/>
<path d="M23.0883 8.87136C24.8944 11.2822 26.455 13.8675 27.7467 16.5888C28.0874 17.3885 28.2547 18.2514 28.2375 19.1205C28.2202 19.9895 28.019 20.8451 27.6469 21.6307C27.1392 22.6173 26.4214 23.4806 25.5439 24.1598C24.6664 24.839 23.6507 25.3174 22.5682 25.5615C21.4168 25.937 20.2019 26.0781 18.9951 25.9767C17.7883 25.8752 16.614 25.5332 15.5414 24.9709C14.6139 24.4307 13.804 23.7102 13.1595 22.8518C12.515 21.9935 12.049 21.0148 11.789 19.9734C11.7377 19.6955 11.7395 19.4103 11.7943 19.1331L13.5485 21.6088C13.6722 21.7834 13.8602 21.9016 14.071 21.9376C14.2819 21.9736 14.4985 21.9243 14.673 21.8006C14.8476 21.6769 14.9659 21.489 15.0018 21.2781C15.0378 21.0672 14.9885 20.8506 14.8648 20.6761L12.218 16.9417L5.50708 7.46937C5.29139 7.16497 5.20546 6.78738 5.26819 6.41963C5.33092 6.05187 5.53717 5.72409 5.84157 5.50841C6.14596 5.29273 6.52359 5.2068 6.89134 5.26953C7.25909 5.33226 7.58685 5.53851 7.80253 5.8429L13.5278 13.9231C13.6515 14.0976 13.8395 14.2159 14.0503 14.2519C14.2612 14.2878 14.4778 14.2386 14.6523 14.1149C14.8269 13.9912 14.9452 13.8033 14.9811 13.5924C15.0171 13.3815 14.9678 13.165 14.8441 12.9904L13.9726 11.7593C13.9548 11.7014 13.9302 11.6458 13.8994 11.5937C13.7182 11.3252 13.6476 10.9971 13.702 10.6778C13.7565 10.3586 13.9319 10.0725 14.1918 9.87923C14.3267 9.78502 14.479 9.71858 14.6398 9.68373C14.8006 9.64889 14.9667 9.64636 15.1285 9.67628C15.2903 9.7062 15.4445 9.76796 15.5822 9.858C15.7199 9.94804 15.8383 10.0646 15.9306 10.2008L16.6332 11.1022C16.6983 11.1856 16.7792 11.2554 16.8712 11.3075C16.9633 11.3597 17.0647 11.3931 17.1697 11.4061C17.2747 11.4191 17.3812 11.4112 17.4832 11.383C17.5852 11.3548 17.6806 11.3067 17.764 11.2416C17.8474 11.1766 17.9171 11.0957 17.9693 11.0036C18.0214 10.9116 18.055 10.8102 18.0679 10.7052C18.0809 10.6002 18.073 10.4936 18.0448 10.3917C18.0166 10.2897 17.9685 10.1943 17.9035 10.1109L17.8882 10.0905L17.8837 10.0808C17.7421 9.87475 17.6841 9.62259 17.7215 9.37539C17.7589 9.12819 17.8889 8.90442 18.0851 8.74945C18.2812 8.59448 18.529 8.51988 18.7781 8.54076C19.0273 8.56164 19.2592 8.67644 19.4268 8.86189L19.6842 9.62862C19.7215 10.0949 19.8846 10.5423 20.1559 10.9233C20.2681 11.0803 20.433 11.1919 20.6205 11.2377C20.808 11.2835 21.0057 11.2605 21.1777 11.173C21.3497 11.0854 21.4847 10.9391 21.5579 10.7605C21.6312 10.582 21.6381 10.383 21.5772 10.1999L21.2922 9.35011C21.3021 9.21309 21.3406 9.07966 21.4052 8.95839C21.4697 8.83711 21.5589 8.73065 21.6669 8.64584C21.775 8.56103 21.8996 8.49972 22.0328 8.46587C22.1659 8.43201 22.3047 8.42635 22.4401 8.44924C22.5707 8.47286 22.6952 8.52235 22.8064 8.59481C22.9176 8.66728 23.014 8.76142 23.0883 8.87136Z" fill="#0040FF"/>
</g>
</g>
</g>
<defs>
<filter id="filter0_d_4257_5497" x="-1.5" y="-1.5" width="36.4016" height="36.4019" filterUnits="userSpaceOnUse" color-interpolation-filters="sRGB">
<feFlood flood-opacity="0" result="BackgroundImageFix"/>
<feColorMatrix in="SourceAlpha" type="matrix" values="0 0 0 0 0 0 0 0 0 0 0 0 0 0 0 0 0 0 127 0" result="hardAlpha"/>
<feOffset dx="0.5" dy="0.5"/>
<feGaussianBlur stdDeviation="1"/>
<feComposite in2="hardAlpha" operator="out"/>
<feColorMatrix type="matrix" values="0 0 0 0 0 0 0 0 0 0 0 0 0 0 0 0 0 0 0.1 0"/>
<feBlend mode="normal" in2="BackgroundImageFix" result="effect1_dropShadow_4257_5497"/>
<feBlend mode="normal" in="SourceGraphic" in2="effect1_dropShadow_4257_5497" result="shape"/>
</filter>
<filter id="filter1_i_4257_5497" x="3.60889" y="3.60181" width="30.241" height="28.0173" filterUnits="userSpaceOnUse" color-interpolation-filters="sRGB">
<feFlood flood-opacity="0" result="BackgroundImageFix"/>
<feBlend mode="normal" in="SourceGraphic" in2="BackgroundImageFix" result="shape"/>
<feColorMatrix in="SourceAlpha" type="matrix" values="0 0 0 0 0 0 0 0 0 0 0 0 0 0 0 0 0 0 127 0" result="hardAlpha"/>
<feOffset dx="4" dy="4"/>
<feGaussianBlur stdDeviation="2"/>
<feComposite in2="hardAlpha" operator="arithmetic" k2="-1" k3="1"/>
<feColorMatrix type="matrix" values="0 0 0 0 1 0 0 0 0 1 0 0 0 0 1 0 0 0 0.35 0"/>
<feBlend mode="normal" in2="shape" result="effect1_innerShadow_4257_5497"/>
</filter>
</defs>
</svg>
