<svg width="24" height="24" viewBox="0 0 24 24" fill="none" xmlns="http://www.w3.org/2000/svg">
<path d="M12 18.75C13.5913 18.75 15.1174 18.1179 16.2426 16.9926C17.3679 15.8674 18 14.3413 18 12.75V11.25M12 18.75C10.4087 18.75 8.8826 18.1179 7.7574 16.9926C6.6321 15.8674 6 14.3413 6 12.75V11.25M12 18.75V22.5M8.25 22.5H15.75M12 15.75C11.2044 15.75 10.4413 15.4339 9.8787 14.8713C9.3161 14.3087 9 13.5456 9 12.75V4.5C9 3.7044 9.3161 2.9413 9.8787 2.3787C10.4413 1.8161 11.2044 1.5 12 1.5C12.7956 1.5 13.5587 1.8161 14.1213 2.3787C14.6839 2.9413 15 3.7044 15 4.5V12.75C15 13.5456 14.6839 14.3087 14.1213 14.8713C13.5587 15.4339 12.7956 15.75 12 15.75Z" stroke="white" stroke-width="2" stroke-linecap="round" stroke-linejoin="round"/>
</svg>
