<svg width="20" height="20" viewBox="0 0 20 20" fill="none" xmlns="http://www.w3.org/2000/svg">
<path d="M10 16.667H17.5" stroke="white" stroke-width="1.66667" stroke-linecap="round" stroke-linejoin="round"/>
<path d="M13.6473 3.01811C13.979 2.68637 14.429 2.5 14.8981 2.5C15.3673 2.5 15.8172 2.68637 16.149 3.01811C16.4807 3.34985 16.6671 3.79979 16.6671 4.26895C16.6671 4.7381 16.4807 5.18804 16.149 5.51978L6.14063 15.5289C5.94238 15.7272 5.69732 15.8722 5.42813 15.9506L3.0348 16.6489C2.96309 16.6699 2.88708 16.6711 2.81472 16.6526C2.74237 16.634 2.67632 16.5964 2.6235 16.5436C2.57069 16.4908 2.53304 16.4247 2.5145 16.3524C2.49596 16.28 2.49722 16.204 2.51813 16.1323L3.21646 13.7389C3.29498 13.4701 3.44 13.2253 3.63813 13.0273L13.6473 3.01811Z" stroke="white" stroke-width="1.66667" stroke-linecap="round" stroke-linejoin="round"/>
</svg>
