<svg width="24" height="24" viewBox="0 0 24 24" fill="none" xmlns="http://www.w3.org/2000/svg">
<path fill-rule="evenodd" clip-rule="evenodd" d="M15.22 3.22C15.361 3.0795 15.551 3.0007 15.75 3.0007C15.949 3.0007 16.139 3.0795 16.28 3.22L18 4.94L19.72 3.22C19.789 3.1463 19.871 3.0872 19.963 3.0462C20.055 3.0052 20.155 2.9832 20.255 2.9814C20.356 2.9796 20.456 2.9982 20.55 3.0359C20.643 3.0736 20.728 3.1297 20.799 3.201C20.87 3.2722 20.926 3.357 20.964 3.4504C21.002 3.5438 21.02 3.6438 21.019 3.7445C21.017 3.8452 20.995 3.9445 20.954 4.0365C20.913 4.1285 20.854 4.2113 20.78 4.28L19.06 6L20.78 7.72C20.912 7.8622 20.985 8.0502 20.981 8.2445C20.978 8.4388 20.899 8.6242 20.762 8.7616C20.624 8.899 20.439 8.9777 20.245 8.9812C20.05 8.9846 19.862 8.9125 19.72 8.78L18 7.06L16.28 8.78C16.211 8.8537 16.129 8.9128 16.037 8.9538C15.945 8.9948 15.845 9.0168 15.745 9.0186C15.644 9.0204 15.544 9.0018 15.45 8.9641C15.357 8.9264 15.272 8.8703 15.201 8.799C15.13 8.7278 15.074 8.643 15.036 8.5496C14.998 8.4562 14.98 8.3562 14.981 8.2555C14.983 8.1548 15.005 8.0555 15.046 7.9635C15.087 7.8715 15.146 7.7887 15.22 7.72L16.94 6L15.22 4.28C15.08 4.1394 15.001 3.9488 15.001 3.75C15.001 3.5512 15.08 3.3606 15.22 3.22ZM1.5 4.5C1.5 3.7044 1.816 2.9413 2.379 2.3787C2.941 1.8161 3.704 1.5 4.5 1.5H5.872C6.732 1.5 7.482 2.086 7.691 2.92L8.796 7.343C8.886 7.701 8.867 8.0775 8.744 8.4252C8.621 8.773 8.397 9.0766 8.102 9.298L6.809 10.268C6.674 10.369 6.645 10.517 6.683 10.62C7.247 12.1549 8.139 13.5487 9.295 14.7051C10.451 15.8614 11.845 16.7526 13.38 17.317C13.483 17.355 13.63 17.326 13.732 17.191L14.702 15.898C14.923 15.6028 15.227 15.3794 15.575 15.256C15.923 15.1325 16.299 15.1145 16.657 15.204L21.08 16.309C21.914 16.518 22.5 17.268 22.5 18.129V19.5C22.5 20.2956 22.184 21.0587 21.621 21.6213C21.059 22.1839 20.296 22.5 19.5 22.5H17.25C8.552 22.5 1.5 15.448 1.5 6.75V4.5Z" fill="white"/>
</svg>
