<svg width="24" height="24" viewBox="0 0 24 24" fill="none" xmlns="http://www.w3.org/2000/svg">
<path d="M3.9 4.8C3.184 4.8 2.497 5.0845 1.991 5.5909C1.485 6.0972 1.2 6.784 1.2 7.5V16.5C1.2 17.2161 1.485 17.9029 1.991 18.4092C2.497 18.9156 3.184 19.2 3.9 19.2H12.9C13.616 19.2 14.303 18.9156 14.809 18.4092C15.316 17.9029 15.6 17.2161 15.6 16.5V7.5C15.6 6.784 15.316 6.0972 14.809 5.5909C14.303 5.0845 13.616 4.8 12.9 4.8H3.9ZM22.8 5.7C22.8 5.5222 22.747 5.3483 22.648 5.2005C22.549 5.0526 22.409 4.9374 22.245 4.8693C22.08 4.8013 21.899 4.7834 21.725 4.8181C21.55 4.8528 21.39 4.9383 21.264 5.064L17.664 8.664C17.495 8.8327 17.4 9.0614 17.4 9.3V14.7C17.4 14.9388 17.495 15.168 17.664 15.336L21.264 18.936C21.39 19.0618 21.55 19.1473 21.725 19.182C21.899 19.2167 22.08 19.1988 22.245 19.1308C22.409 19.0627 22.549 18.9475 22.648 18.7996C22.747 18.6518 22.8 18.4779 22.8 18.3V5.7Z" fill="white"/>
</svg>
