<svg width="20" height="20" viewBox="0 0 20 20" fill="none" xmlns="http://www.w3.org/2000/svg">
<path d="M11.6667 3.41675L10 5.00008" stroke="white" stroke-width="1.66667" stroke-linecap="round" stroke-linejoin="round"/>
<path d="M4.25016 6.66667L1.8335 6" stroke="white" stroke-width="1.66667" stroke-linecap="round" stroke-linejoin="round"/>
<path d="M4.99984 10L3.4165 11.6667" stroke="white" stroke-width="1.66667" stroke-linecap="round" stroke-linejoin="round"/>
<path d="M6 1.83325L6.66667 4.24992" stroke="white" stroke-width="1.66667" stroke-linecap="round" stroke-linejoin="round"/>
<path d="M7.53055 8.07521C7.49824 7.99908 7.4894 7.91504 7.50518 7.83387C7.52096 7.75269 7.56063 7.67807 7.61911 7.6196C7.67759 7.56112 7.7522 7.52145 7.83338 7.50567C7.91456 7.48989 7.9986 7.49873 8.07472 7.53104L17.2414 11.281C17.323 11.3145 17.3918 11.373 17.4381 11.4481C17.4843 11.5232 17.5055 11.611 17.4986 11.6989C17.4918 11.7868 17.4572 11.8703 17.3999 11.9373C17.3426 12.0043 17.2655 12.0515 17.1797 12.0719L13.5556 12.9394C13.4059 12.9751 13.2691 13.0516 13.1603 13.1603C13.0515 13.2689 12.9748 13.4056 12.9389 13.5552L12.0722 17.1802C12.052 17.2663 12.005 17.3437 11.9379 17.4013C11.8708 17.4588 11.7871 17.4936 11.6989 17.5004C11.6108 17.5073 11.5227 17.4859 11.4475 17.4395C11.3723 17.393 11.3138 17.3238 11.2806 17.2419L7.53055 8.07521Z" stroke="white" stroke-width="1.66667" stroke-linecap="round" stroke-linejoin="round"/>
</svg>
